<svg xmlns="http://www.w3.org/2000/svg" viewBox="0 0 320 400" fill="none">
  <defs>
    <radialGradient id="b" cx="40%" cy="30%" r="70%"><stop offset="0%" stop-color="#f4f7ff"/><stop offset="100%" stop-color="#b5c6e4"/></radialGradient>
    <radialGradient id="h" cx="45%" cy="35%" r="65%"><stop offset="0%" stop-color="#f7faff"/><stop offset="100%" stop-color="#b7cdea"/></radialGradient>
  </defs>
  <ellipse cx="160" cy="372" rx="78" ry="12" fill="rgba(0,0,0,.45)"/>
  <path d="M78 230 C40 250 28 310 48 340" stroke="url(#b)" stroke-width="28" stroke-linecap="round"/>
  <path d="M242 230 C280 250 292 310 272 340" stroke="url(#b)" stroke-width="28" stroke-linecap="round"/>
  <ellipse cx="160" cy="280" rx="92" ry="110" fill="url(#b)"/>
  <ellipse cx="160" cy="188" rx="48" ry="18" fill="#e8effc"/>
  <g>
    <animateTransform attributeName="transform" type="rotate" values="-5 160 160;5 160 160;-5 160 160" dur="2s" repeatCount="indefinite"/>
    <ellipse cx="160" cy="120" rx="108" ry="88" fill="url(#h)"/>
    <ellipse cx="160" cy="128" rx="78" ry="48" fill="#0d131e"/>
    <g fill="#04e9d7">
      <rect x="114" y="116" width="7" height="24" rx="2"><animate attributeName="height" values="14;28;14" dur="0.7s" repeatCount="indefinite"/></rect>
      <rect x="126" y="112" width="7" height="28" rx="2"><animate attributeName="height" values="28;12;28" dur="0.7s" begin="0.1s" repeatCount="indefinite"/></rect>
      <rect x="138" y="118" width="7" height="18" rx="2"><animate attributeName="height" values="10;24;10" dur="0.7s" begin="0.2s" repeatCount="indefinite"/></rect>
      <rect x="176" y="116" width="7" height="24" rx="2"><animate attributeName="height" values="14;28;14" dur="0.7s" begin="0.05s" repeatCount="indefinite"/></rect>
      <rect x="188" y="112" width="7" height="28" rx="2"><animate attributeName="height" values="28;12;28" dur="0.7s" begin="0.15s" repeatCount="indefinite"/></rect>
      <rect x="200" y="118" width="7" height="18" rx="2"><animate attributeName="height" values="10;24;10" dur="0.7s" begin="0.25s" repeatCount="indefinite"/></rect>
    </g>
  </g>
  <text x="160" y="300" text-anchor="middle" fill="#4a5568" font-size="18" font-weight="700" letter-spacing="6" font-family="Segoe UI,sans-serif">EVE</text>
</svg>
